<svg width="49" height="49" viewBox="0 0 49 49" fill="none" xmlns="http://www.w3.org/2000/svg">
<rect width="49" height="49" rx="24.5" fill="white"/>
<path d="M23.3951 21.9357C22.7842 21.5464 22.5928 20.7151 22.9679 20.0812L26.8804 13.3171C27.1292 12.8954 27.5538 12.6724 27.9862 12.6724C28.9969 12.6724 29.626 13.8281 29.0946 14.7256L25.1807 21.491C24.7978 22.1385 23.9955 22.3169 23.3951 21.9357ZM34.8383 24.8379L34.8175 24.8933L30.1313 37.0034H18.0238L13.3376 24.8906L13.3181 24.8379H18.8743C20.0725 26.5235 21.9637 27.5413 24.0763 27.5413C26.1549 27.5413 28.0617 26.5397 29.2834 24.8379H34.8383ZM39.7069 22.1344H27.8572L27.4001 22.9036C26.6863 24.1147 25.4425 24.8379 24.0749 24.8379C22.5094 24.8379 21.0025 23.8646 20.4125 22.1344H8.44824V24.8379H9.28571C9.98252 24.8379 10.6155 25.2488 10.9216 25.8976L16.2629 39.7068H31.8922L37.2348 25.9003C37.5396 25.2502 38.1752 24.8379 38.8707 24.8379H39.7069V22.1344ZM21.4727 34.3C21.4727 35.0461 20.8905 35.6517 20.1702 35.6517C19.45 35.6517 18.8678 35.0461 18.8678 34.3V30.2448C18.8678 29.4986 19.45 28.8931 20.1702 28.8931C20.8905 28.8931 21.4727 29.4986 21.4727 30.2448V34.3ZM29.2873 34.3C29.2873 35.0461 28.7051 35.6517 27.9849 35.6517C27.2646 35.6517 26.6824 35.0461 26.6824 34.3V30.2448C26.6824 29.4986 27.2646 28.8931 27.9849 28.8931C28.7051 28.8931 29.2873 29.4986 29.2873 30.2448V34.3ZM25.38 34.3C25.38 35.0461 24.7978 35.6517 24.0776 35.6517C23.3573 35.6517 22.7751 35.0461 22.7751 34.3V30.2448C22.7751 29.4986 23.3573 28.8931 24.0776 28.8931C24.7978 28.8931 25.38 29.4986 25.38 30.2448V34.3Z" fill="#202020"/>
</svg>
