<svg width="49" height="49" viewBox="0 0 49 49" fill="none" xmlns="http://www.w3.org/2000/svg">
<rect width="49" height="49" rx="24.5" fill="white"/>
<path d="M24.5 4.22412C13.3026 4.22412 4.22412 13.3026 4.22412 24.5C4.22412 35.6973 13.3026 44.7758 24.5 44.7758C35.6973 44.7758 44.7758 35.6973 44.7758 24.5C44.7758 13.3026 35.6973 4.22412 24.5 4.22412ZM37.5999 35.1533C37.1589 34.1631 36.2667 33.4788 34.4385 33.0564C30.5642 32.1626 26.9567 31.3786 28.7055 28.0804C34.0195 18.0404 30.113 12.6724 24.5 12.6724C18.7754 12.6724 14.9636 18.2466 20.2944 28.0804C22.0956 31.3988 18.3547 32.1812 14.5614 33.0564C12.7298 33.4788 11.8445 34.1682 11.4068 35.1617C9.03288 32.2504 7.60343 28.5399 7.60343 24.5C7.60343 15.1832 15.1832 7.60343 24.5 7.60343C33.8167 7.60343 41.3965 15.1832 41.3965 24.5C41.3965 28.5366 39.9688 32.2437 37.5999 35.1533Z" fill="black"/>
</svg>
